<svg xmlns="http://www.w3.org/2000/svg">
  <symbol viewBox="0 0 512 512" id="imdb">
    <g id="SVGRepo_bgCarrier" stroke-width="0" />
    <g id="SVGRepo_tracerCarrier" stroke-linecap="round" stroke-linejoin="round" stroke="#CCCCCC"
      stroke-width="3.072" />
    <g id="SVGRepo_iconCarrier">
      <rect width="512" height="512" rx="15%" fill="#f5c518" />
      <path
        d="M104 328V184H64v144zM189 184l-9 67-5-36-5-31h-50v144h34v-95l14 95h25l13-97v97h34V184zM256 328V184h62c15 0 26 11 26 25v94c0 14-11 25-26 25zm47-118l-9-1v94c5 0 9-1 10-3 2-2 2-8 2-18v-56-12l-3-4zM419 220h3c14 0 26 11 26 25v58c0 14-12 25-26 25h-3c-8 0-16-4-21-11l-2 9h-36V184h38v46c5-6 13-10 21-10zm-8 70v-34l-1-11c-1-2-4-3-6-3s-5 1-6 3v57c1 2 4 3 6 3s6-1 6-3l1-12z" />
    </g>
  </symbol>
  <symbol viewBox="0 0 192 192" id="kinopoisk">
    <path
      d="M96.5 20 66.1 75.733V20H40.767v152H66.1v-55.733L96.5 172h35.467C116.767 153.422 95.2 133.578 80 115c28.711 16.889 63.789 35.044 92.5 51.933v-30.4C148.856 126.4 108.644 115.133 85 105c23.644 3.378 63.856 7.889 87.5 11.267v-30.4L85 90c27.022-11.822 60.478-22.711 87.5-34.533v-30.4C143.789 41.956 108.711 63.11 80 80l51.967-60z"
      style="display:inline;fill:none;stroke:#000000;stroke-width:8;stroke-linecap:round;stroke-linejoin:round;stroke-miterlimit:10;stroke-dasharray:none;stroke-opacity:1" />
  </symbol>
</svg>